<svg width="35" height="33" viewBox="0 0 35 33" fill="none" xmlns="http://www.w3.org/2000/svg">
<path d="M31.25 0H3.75C2.75544 0 1.80161 0.37033 1.09835 1.02952C0.395088 1.68871 0 2.58277 0 3.515L0 29.2917C0 30.2239 0.395088 31.118 1.09835 31.7772C1.80161 32.4363 2.75544 32.8067 3.75 32.8067H14.4727V21.6531H9.55078V16.4033H14.4727V12.4021C14.4727 7.8509 17.3633 5.33694 21.7906 5.33694C23.9109 5.33694 26.1281 5.69137 26.1281 5.69137V10.1584H23.6852C21.2781 10.1584 20.5273 11.5585 20.5273 12.9945V16.4033H25.9008L25.0414 21.6531H20.5273V32.8067H31.25C32.2446 32.8067 33.1984 32.4363 33.9016 31.7772C34.6049 31.118 35 30.2239 35 29.2917V3.515C35 2.58277 34.6049 1.68871 33.9016 1.02952C33.1984 0.37033 32.2446 0 31.25 0Z" fill="#4267B2"/>
</svg>
