<svg width="32" height="27" viewBox="0 0 32 27" fill="none" xmlns="http://www.w3.org/2000/svg">
<path d="M28.1085 0H3.37302C2.47844 0 1.6205 0.304782 0.987933 0.847298C0.35537 1.38981 0 2.12562 0 2.89286L0 24.1071C0 24.8744 0.35537 25.6102 0.987933 26.1527C1.6205 26.6952 2.47844 27 3.37302 27H13.0177V17.8206H8.59065V13.5H13.0177V10.207C13.0177 6.46132 15.6178 4.39232 19.6 4.39232C21.5072 4.39232 23.5015 4.68402 23.5015 4.68402V8.36036H21.3041C19.1391 8.36036 18.4637 9.51268 18.4637 10.6945V13.5H23.297L22.524 17.8206H18.4637V27H28.1085C29.003 27 29.861 26.6952 30.4935 26.1527C31.1261 25.6102 31.4815 24.8744 31.4815 24.1071V2.89286C31.4815 2.12562 31.1261 1.38981 30.4935 0.847298C29.861 0.304782 29.003 0 28.1085 0Z" fill="#4267B2"/>
</svg>
