<svg width="32" height="27" viewBox="0 0 32 27" fill="none" xmlns="http://www.w3.org/2000/svg">
<path d="M16.004 6.57754C11.5373 6.57754 7.93436 9.66825 7.93436 13.5C7.93436 17.3318 11.5373 20.4225 16.004 20.4225C20.4708 20.4225 24.0737 17.3318 24.0737 13.5C24.0737 9.66825 20.4708 6.57754 16.004 6.57754ZM16.004 18.0005C13.1175 18.0005 10.7577 15.9822 10.7577 13.5C10.7577 11.0178 13.1105 8.9995 16.004 8.9995C18.8976 8.9995 21.2503 11.0178 21.2503 13.5C21.2503 15.9822 18.8906 18.0005 16.004 18.0005ZM26.286 6.29438C26.286 7.19207 25.4432 7.90902 24.4038 7.90902C23.3573 7.90902 22.5215 7.18604 22.5215 6.29438C22.5215 5.40271 23.3643 4.67974 24.4038 4.67974C25.4432 4.67974 26.286 5.40271 26.286 6.29438ZM31.6306 7.93311C31.5112 5.77022 30.9353 3.85435 29.0882 2.27586C27.2482 0.697367 25.0148 0.203336 22.4935 0.0948901C19.8949 -0.03163 12.1061 -0.03163 9.50756 0.0948901C6.99326 0.197311 4.75988 0.691342 2.91278 2.26983C1.06568 3.84832 0.496799 5.7642 0.370381 7.92709C0.222894 10.1563 0.222894 16.8377 0.370381 19.0669C0.489775 21.2298 1.06568 23.1457 2.91278 24.7241C4.75988 26.3026 6.98623 26.7967 9.50756 26.9051C12.1061 27.0316 19.8949 27.0316 22.4935 26.9051C25.0148 26.8027 27.2482 26.3087 29.0882 24.7241C30.9283 23.1457 31.5042 21.2298 31.6306 19.0669C31.7781 16.8377 31.7781 10.1623 31.6306 7.93311ZM28.2735 21.4587C27.7257 22.6396 26.6652 23.5493 25.2817 24.0253C23.2098 24.7302 18.2936 24.5675 16.004 24.5675C13.7145 24.5675 8.79119 24.7241 6.72637 24.0253C5.34983 23.5553 4.28933 22.6456 3.73449 21.4587C2.91278 19.6814 3.1024 15.4641 3.1024 13.5C3.1024 11.5359 2.9198 7.31256 3.73449 5.54128C4.2823 4.36043 5.3428 3.45069 6.72637 2.97473C8.79822 2.26983 13.7145 2.4325 16.004 2.4325C18.2936 2.4325 23.2168 2.27586 25.2817 2.97473C26.6582 3.44466 27.7187 4.3544 28.2735 5.54128C29.0953 7.31859 28.9056 11.5359 28.9056 13.5C28.9056 15.4641 29.0953 19.6874 28.2735 21.4587Z" fill="url(#paint0_linear_1308_134)"/>
<defs>
<linearGradient id="paint0_linear_1308_134" x1="16.0005" y1="0" x2="16.0005" y2="27" gradientUnits="userSpaceOnUse">
<stop stop-color="#D62976"/>
<stop offset="1" stop-color="#962FBF"/>
</linearGradient>
</defs>
</svg>
