<svg width="35" height="33" viewBox="0 0 35 33" fill="none" xmlns="http://www.w3.org/2000/svg">
<path d="M17.5039 7.99212C12.5379 7.99212 8.53235 11.7475 8.53235 16.4033C8.53235 21.0592 12.5379 24.8146 17.5039 24.8146C22.4699 24.8146 26.4755 21.0592 26.4755 16.4033C26.4755 11.7475 22.4699 7.99212 17.5039 7.99212ZM17.5039 21.8717C14.2948 21.8717 11.6712 19.4194 11.6712 16.4033C11.6712 13.3873 14.287 10.9349 17.5039 10.9349C20.7209 10.9349 23.3366 13.3873 23.3366 16.4033C23.3366 19.4194 20.7131 21.8717 17.5039 21.8717ZM28.935 7.64806C28.935 8.73881 27.9981 9.60995 26.8424 9.60995C25.679 9.60995 24.7499 8.73149 24.7499 7.64806C24.7499 6.56463 25.6868 5.68617 26.8424 5.68617C27.9981 5.68617 28.935 6.56463 28.935 7.64806ZM34.877 9.63923C34.7443 7.01118 34.104 4.68327 32.0505 2.76531C30.0047 0.847344 27.5218 0.247066 24.7186 0.115297C21.8296 -0.0384325 13.1704 -0.0384325 10.2814 0.115297C7.48606 0.239745 5.00307 0.840024 2.94953 2.75799C0.895985 4.67595 0.263525 7.00386 0.122978 9.63191C-0.0409927 12.3405 -0.0409927 20.4589 0.122978 23.1674C0.255717 25.7955 0.895985 28.1234 2.94953 30.0414C5.00307 31.9593 7.47825 32.5596 10.2814 32.6914C13.1704 32.8451 21.8296 32.8451 24.7186 32.6914C27.5218 32.5669 30.0047 31.9667 32.0505 30.0414C34.0962 28.1234 34.7365 25.7955 34.877 23.1674C35.041 20.4589 35.041 12.3478 34.877 9.63923ZM31.1447 26.0737C30.5357 27.5085 29.3567 28.6139 27.8185 29.1922C25.5151 30.0487 20.0494 29.851 17.5039 29.851C14.9585 29.851 9.48494 30.0414 7.18935 29.1922C5.65895 28.6212 4.47992 27.5158 3.86308 26.0737C2.94953 23.9141 3.16035 18.7898 3.16035 16.4033C3.16035 14.0169 2.95733 8.88522 3.86308 6.733C4.47211 5.29819 5.65114 4.1928 7.18935 3.61448C9.49275 2.75799 14.9585 2.95564 17.5039 2.95564C20.0494 2.95564 25.5229 2.76531 27.8185 3.61448C29.3489 4.18548 30.5279 5.29087 31.1447 6.733C32.0583 8.89254 31.8475 14.0169 31.8475 16.4033C31.8475 18.7898 32.0583 23.9215 31.1447 26.0737Z" fill="url(#paint0_linear_204_1697)"/>
<defs>
<linearGradient id="paint0_linear_204_1697" x1="17.5" y1="0" x2="17.5" y2="32.8067" gradientUnits="userSpaceOnUse">
<stop stop-color="#D62976"/>
<stop offset="1" stop-color="#962FBF"/>
</linearGradient>
</defs>
</svg>
