<svg width="35" height="33" viewBox="0 0 35 33" fill="none" xmlns="http://www.w3.org/2000/svg">
<path d="M32.5 0H2.49219C1.11719 0 0 1.06182 0 2.3653V30.4414C0 31.7449 1.11719 32.8067 2.49219 32.8067H32.5C33.875 32.8067 35 31.7449 35 30.4414V2.3653C35 1.06182 33.875 0 32.5 0ZM10.5781 28.12H5.39062V12.4636H10.5859V28.12H10.5781ZM7.98438 10.3253C6.32031 10.3253 4.97656 9.05845 4.97656 7.50599C4.97656 5.95353 6.32031 4.68667 7.98438 4.68667C9.64062 4.68667 10.9922 5.95353 10.9922 7.50599C10.9922 9.06577 9.64844 10.3253 7.98438 10.3253ZM30.0234 28.12H24.8359V20.5042C24.8359 18.6881 24.7969 16.3521 22.1406 16.3521C19.4375 16.3521 19.0234 18.3293 19.0234 20.3724V28.12H13.8359V12.4636H18.8125V14.6019H18.8828C19.5781 13.3717 21.2734 12.0755 23.7969 12.0755C29.0469 12.0755 30.0234 15.3195 30.0234 19.5375V28.12Z" fill="#0077B5"/>
</svg>
