<svg width="32" height="27" viewBox="0 0 32 27" fill="none" xmlns="http://www.w3.org/2000/svg">
<path d="M29.7504 0H2.75923C1.52246 0 0.517578 0.873884 0.517578 1.94665V25.0533C0.517578 26.1261 1.52246 27 2.75923 27H29.7504C30.9872 27 31.9991 26.1261 31.9991 25.0533V1.94665C31.9991 0.873884 30.9872 0 29.7504 0ZM10.0323 23.1429H5.36629V10.2576H10.0393V23.1429H10.0323ZM7.69929 8.49777C6.20252 8.49777 4.99385 7.45513 4.99385 6.17746C4.99385 4.89978 6.20252 3.85714 7.69929 3.85714C9.18904 3.85714 10.4047 4.89978 10.4047 6.17746C10.4047 7.46116 9.19607 8.49777 7.69929 8.49777ZM27.5228 23.1429H22.8568V16.875C22.8568 15.3804 22.8216 13.4578 20.4324 13.4578C18.001 13.4578 17.6286 15.085 17.6286 16.7665V23.1429H12.9626V10.2576H17.4389V12.0174H17.5021C18.1275 11.0049 19.6524 9.93817 21.9222 9.93817C26.6444 9.93817 27.5228 12.608 27.5228 16.0795V23.1429Z" fill="#0077B5"/>
</svg>
