<svg width="257" height="72" viewBox="0 0 257 72" fill="none" xmlns="http://www.w3.org/2000/svg">
<g clip-path="url(#clip0_204_1382)">
<path d="M53.6557 27.3587L59.4297 23.3017C59.4297 23.3017 59.7234 42.4334 48.6694 55.5681C48.6694 55.5681 57.6748 43.2374 53.6557 27.3587Z" fill="white" stroke="white" stroke-width="0.71" stroke-miterlimit="10"/>
<path d="M34.7893 28.1602C34.0045 30.9776 33.6612 33.8887 33.7702 36.8003C33.7702 36.8003 35.7616 38.5436 43.7375 40.1344C51.7135 41.7252 52.0124 45.588 52.0124 45.588C52.0124 45.588 50.7464 51.2997 47.6787 55.5681C47.6787 55.5681 51.0011 43.2202 43.7349 40.1344C36.4687 37.0487 34.7893 28.1602 34.7893 28.1602Z" fill="white" stroke="white" stroke-width="0.26" stroke-miterlimit="10"/>
<path d="M33.934 27.3587L28.1575 23.3017C28.1575 23.3017 27.8663 42.4334 38.9177 55.5681C38.9177 55.5681 29.9149 43.2374 33.934 27.3587Z" fill="white" stroke="white" stroke-width="0.71" stroke-miterlimit="10"/>
<path d="M45.5598 22.3379C45.5574 22.7745 45.3796 23.1939 45.0625 23.5112C44.7454 23.8285 44.3126 24.0199 43.8518 24.0467H43.7374C43.2956 23.9965 42.8885 23.7949 42.5932 23.48C42.2979 23.1651 42.1348 22.7588 42.1348 22.3379C42.1348 21.917 42.2979 21.5106 42.5932 21.1957C42.8885 20.8809 43.2956 20.6792 43.7374 20.629H43.8518C44.3126 20.6558 44.7454 20.8473 45.0625 21.1646C45.3796 21.4818 45.5574 21.9013 45.5598 22.3379Z" fill="white" stroke="white" stroke-width="0.26" stroke-miterlimit="10"/>
<path d="M43.7979 50.4588L43.7378 50.9013V50.0186L43.7979 50.4588Z" fill="white" stroke="white" stroke-width="0.26" stroke-miterlimit="10"/>
<path d="M59.3231 21.3716L46.4675 30.0584L43.8548 50.0186L43.7976 50.4588L43.7378 50.0186L41.1251 30.0584L28.2695 21.3716L43.7976 26.1195L59.3231 21.3716Z" fill="white" stroke="white" stroke-width="0.26" stroke-miterlimit="10"/>
<path d="M43.8548 50.0186V50.9013L43.7974 50.4588L43.8548 50.0186Z" fill="white" stroke="white" stroke-width="0.26" stroke-miterlimit="10"/>
<path d="M66.2172 53.2249C64.0442 56.0505 61.085 58.2505 57.6688 59.5802C54.2525 60.9099 50.5131 61.3171 46.8668 60.7564C43.2204 60.1958 39.81 58.6893 37.015 56.4047C34.2199 54.12 32.1499 51.1467 31.0352 47.8156C30.3099 46.2223 29.6886 44.6659 29.153 43.144L20.626 51.7742C22.4708 57.0439 25.8701 61.7049 30.4231 65.2079C34.9761 68.7109 40.4931 70.9099 46.3237 71.5456C52.1544 72.1813 58.0556 71.2272 63.3319 68.7959C68.6083 66.3645 73.0397 62.5572 76.1039 57.8228L66.2172 53.2249Z" fill="white" stroke="white" stroke-width="2.04" stroke-miterlimit="10"/>
<path d="M28.8229 41.1966L1.83789 68.6094L18.5203 44.1152C18.5203 44.1152 18.931 30.8255 26.6444 23.6017C26.4853 29.5347 27.2189 35.4589 28.8229 41.1966Z" fill="white" stroke="white" stroke-width="2.04" stroke-miterlimit="14" stroke-linecap="square"/>
<path d="M76.5045 27.8012L66.571 31.1894C65.1754 29.2539 63.4125 27.5798 61.3716 26.2522L61.3949 26.1539C62.505 21.4822 61.2 18.2858 61.2 18.2858L52.8341 20.9905L50.7075 21.8953L72.3293 1.55885L63.2641 16.159C68.8066 18.7038 73.4176 22.7583 76.5045 27.8012Z" fill="white" stroke="white" stroke-width="2.04" stroke-miterlimit="10"/>
<path d="M83.5938 36.7069V19.4267H88.5124V36.7069H83.5938Z" fill="white" stroke="white" stroke-miterlimit="10"/>
<path d="M98.3525 33.4982H109.854V36.7069H93.4937V19.4267H109.466V22.6231H98.3525V33.4982ZM97.9912 26.3678H108.166V29.5027H97.9912V26.3678Z" fill="white" stroke="white" stroke-miterlimit="10"/>
<path d="M118.607 33.4982H130.105V36.7069H113.748V19.4267H129.713V22.6231H118.607V33.4982ZM118.246 26.3678H128.416V29.5027H118.246V26.3678Z" fill="white" stroke="white" stroke-miterlimit="10"/>
<path d="M138.858 33.4982H150.36V36.7069H134V19.4267H149.967V22.6231H138.858V33.4982ZM138.497 26.3678H148.67V29.5027H138.497V26.3678Z" fill="white" stroke="white" stroke-miterlimit="10"/>
<path d="M165.815 36.4659C164.548 36.4715 163.29 36.2753 162.092 35.8857C161.058 35.5798 160.104 35.0684 159.295 34.3858L160.194 32.5344C160.925 33.1347 161.767 33.6015 162.677 33.9113C163.679 34.2745 164.742 34.4595 165.815 34.4571C166.633 34.4824 167.449 34.37 168.225 34.1252C168.765 33.9553 169.239 33.6369 169.587 33.2105C169.879 32.828 170.033 32.3668 170.027 31.8951C170.038 31.641 169.992 31.3874 169.894 31.1508C169.796 30.9141 169.646 30.6995 169.455 30.5206C169.027 30.1454 168.521 29.8582 167.97 29.6773C167.314 29.452 166.644 29.2664 165.963 29.1216C165.233 28.9642 164.497 28.7774 163.761 28.5635C163.057 28.364 162.38 28.0893 161.741 27.7447C161.141 27.4204 160.635 26.961 160.267 26.4071C159.869 25.7475 159.675 24.995 159.708 24.236C159.702 23.4041 159.942 22.5872 160.402 21.8781C160.92 21.1161 161.666 20.517 162.545 20.157C163.51 19.7226 164.739 19.5046 166.231 19.5029C167.225 19.5025 168.215 19.629 169.174 19.8791C170.078 20.1012 170.935 20.4698 171.706 20.9683L170.903 22.8665C170.198 22.4034 169.417 22.0544 168.592 21.8338C167.824 21.6262 167.03 21.5186 166.231 21.5142C165.427 21.4891 164.626 21.6102 163.87 21.8707C163.329 22.0516 162.858 22.3823 162.519 22.8198C162.236 23.2105 162.087 23.674 162.092 24.1475C162.08 24.4055 162.125 24.663 162.223 24.9038C162.321 25.1446 162.472 25.3635 162.664 25.5466C163.091 25.9196 163.597 26.2021 164.149 26.3752C164.807 26.5949 165.478 26.7812 166.158 26.9333C166.886 27.098 167.622 27.2849 168.36 27.489C169.065 27.6816 169.743 27.9523 170.38 28.2955C170.977 28.6183 171.483 29.074 171.852 29.6232C172.25 30.2692 172.444 31.01 172.41 31.7574C172.415 32.5835 172.17 33.3936 171.706 34.0932C171.175 34.8574 170.417 35.4561 169.527 35.8144C168.545 36.2496 167.31 36.4659 165.815 36.4659Z" fill="white" stroke="white" stroke-miterlimit="10"/>
<path d="M175.964 36.2766V19.6799H183.605C185.569 19.6799 187.077 20.0627 188.131 20.8282C188.644 21.1919 189.056 21.6678 189.332 22.2151C189.607 22.7623 189.739 23.3647 189.714 23.9705C189.742 24.77 189.526 25.5602 189.093 26.2473C188.687 26.8573 188.11 27.3491 187.427 27.6685C186.723 27.9991 185.947 28.1676 185.162 28.1602L185.602 27.4496C186.489 27.431 187.37 27.599 188.18 27.9414C188.907 28.2574 189.523 28.7633 189.956 29.3994C190.416 30.1159 190.645 30.9441 190.614 31.782C190.614 33.2064 190.066 34.3096 188.971 35.0915C187.875 35.8734 186.249 36.2643 184.091 36.2643L175.964 36.2766ZM178.398 34.3563H183.995C185.342 34.3563 186.372 34.135 187.086 33.6924C187.8 33.2499 188.157 32.554 188.157 31.605C188.157 30.6411 187.8 29.9379 187.086 29.4953C186.372 29.0528 185.342 28.8315 183.995 28.8315H178.179V26.9112H183.379C184.611 26.9112 185.564 26.6899 186.238 26.2473C186.913 25.8047 187.253 25.1409 187.26 24.2557C187.26 23.3705 186.92 22.7067 186.238 22.2641C185.557 21.8215 184.604 21.6002 183.379 21.6002H178.398V34.3563Z" fill="white" stroke="white" stroke-miterlimit="10"/>
<path d="M200.932 36.2766V19.6799H202.929L214.196 33.3138H213.156V19.6799H215.589V36.2766H213.595L202.328 22.6428H203.368V36.2766H200.932Z" fill="white" stroke="white" stroke-miterlimit="10"/>
<path d="M220.692 36.2766V19.6799H223.126V36.2766H220.692Z" fill="white" stroke="white" stroke-miterlimit="10"/>
<path d="M231.619 36.2766V21.7428H225.777V19.6799H239.868V21.7428H234.029V36.2766H231.619Z" fill="white" stroke="white" stroke-miterlimit="10"/>
<path d="M249.895 36.4659C248.667 36.4783 247.447 36.2653 246.305 35.8389C245.232 35.4373 244.259 34.8314 243.445 34.0588C242.637 33.2874 241.996 32.3735 241.56 31.3689C240.649 29.1907 240.649 26.7659 241.56 24.5876C241.999 23.5806 242.644 22.6656 243.458 21.8953C244.273 21.1249 245.246 20.52 246.318 20.1176C248.645 19.2699 251.224 19.2787 253.545 20.1422C254.639 20.5634 255.61 21.226 256.379 22.0748L254.798 23.5673C254.187 22.933 253.44 22.43 252.606 22.092C251.783 21.7649 250.899 21.5977 250.007 21.6002C249.094 21.5916 248.189 21.7528 247.342 22.0748C246.542 22.3759 245.817 22.8289 245.209 23.4057C244.602 23.9826 244.126 24.671 243.812 25.4285C243.15 27.0707 243.15 28.8858 243.812 30.528C244.126 31.2888 244.603 31.9802 245.212 32.5592C245.821 33.1383 246.55 33.5927 247.352 33.8941C248.199 34.216 249.104 34.3773 250.017 34.3686C250.91 34.3724 251.794 34.2051 252.617 33.8769C253.456 33.5345 254.204 33.0206 254.808 32.3721L256.389 33.8646C255.619 34.7142 254.648 35.3804 253.555 35.8094C252.394 36.2581 251.149 36.4813 249.895 36.4659Z" fill="white" stroke="white" stroke-miterlimit="10"/>
<path d="M83.5547 47.0067V39.95H84.696L89.3755 45.3937H88.8113V39.95H90.1736V47.0067H89.0349L84.3554 41.563H84.9195V47.0067H83.5547Z" fill="white" stroke="white" stroke-miterlimit="10"/>
<path d="M93.7144 47.078C93.3295 47.0859 92.9474 47.0154 92.5939 46.8714C92.2944 46.7497 92.0375 46.5502 91.853 46.2961C91.6794 46.0503 91.5887 45.7605 91.593 45.465C91.5881 45.1781 91.6673 44.8956 91.8218 44.6487C91.9987 44.3862 92.2603 44.1844 92.5679 44.0734C93.0105 43.9173 93.4814 43.8454 93.9535 43.8619H95.6043V44.6979H94.0445C93.5974 44.6979 93.2932 44.7667 93.132 44.9044C93.055 44.9695 92.9938 45.0496 92.9525 45.1391C92.9112 45.2286 92.8909 45.3256 92.8928 45.4232C92.8905 45.5281 92.9157 45.632 92.966 45.7255C93.0163 45.819 93.0903 45.8993 93.1814 45.9592C93.4179 46.1053 93.6976 46.1759 93.9795 46.1608C94.2871 46.1654 94.5904 46.0924 94.8582 45.9494C95.1178 45.8069 95.3192 45.5861 95.4302 45.3224L95.6433 46.0797C95.5166 46.3953 95.2739 46.6572 94.9596 46.8173C94.5749 47.0034 94.1462 47.0931 93.7144 47.078ZM95.503 47.0067V45.9076L95.4406 45.6863V43.7808C95.4502 43.6209 95.4231 43.461 95.3612 43.3121C95.2992 43.1631 95.2039 43.0286 95.0818 42.9177C94.7746 42.6911 94.3888 42.5815 94.0003 42.6104C93.6906 42.6104 93.3827 42.6561 93.0878 42.7456C92.8044 42.8301 92.54 42.9635 92.3079 43.139L91.788 42.2219C92.1189 41.9946 92.4919 41.8278 92.8876 41.7301C93.3102 41.6149 93.7478 41.557 94.1875 41.558C95.0194 41.558 95.6589 41.7449 96.1061 42.1235C96.5532 42.5022 96.7768 43.0775 96.7768 43.8447V46.9993L95.503 47.0067Z" fill="white" stroke="white" stroke-miterlimit="10"/>
<path d="M97.6455 42.6719V41.6638H101.441V42.6719H97.6455ZM100.547 47.078C100.018 47.1108 99.4971 46.9456 99.0961 46.6182C98.9151 46.4407 98.7753 46.2294 98.6857 45.9977C98.5962 45.7661 98.5589 45.5193 98.5762 45.2732V40.4344H99.8995V45.2314C99.8846 45.4486 99.9612 45.6626 100.113 45.8265C100.191 45.8993 100.284 45.9557 100.386 45.9922C100.489 46.0286 100.599 46.0442 100.708 46.0379C100.97 46.047 101.226 45.9687 101.433 45.8166L101.818 46.7141C101.643 46.8402 101.443 46.9329 101.231 46.987C101.008 47.0459 100.778 47.0765 100.547 47.078Z" fill="white" stroke="white" stroke-miterlimit="10"/>
<path d="M103.531 40.7368C103.418 40.7408 103.306 40.7233 103.2 40.6852C103.095 40.6472 102.999 40.5895 102.918 40.5155C102.84 40.445 102.779 40.3602 102.738 40.2662C102.696 40.1723 102.676 40.0713 102.678 39.9697C102.677 39.8714 102.698 39.774 102.739 39.6838C102.78 39.5936 102.841 39.5126 102.918 39.446C102.999 39.372 103.095 39.3143 103.2 39.2762C103.306 39.2382 103.418 39.2207 103.531 39.2247C103.755 39.2165 103.974 39.2905 104.142 39.4312C104.221 39.4973 104.283 39.5788 104.325 39.6702C104.367 39.7615 104.387 39.8604 104.384 39.9598C104.386 40.062 104.366 40.1636 104.325 40.2583C104.285 40.3529 104.224 40.4388 104.147 40.5106C104.066 40.5864 103.97 40.6455 103.864 40.6845C103.758 40.7234 103.645 40.7412 103.531 40.7368ZM102.868 47.0067V41.6244H104.191V47.0067H102.868Z" fill="white" stroke="white" stroke-miterlimit="10"/>
<path d="M108.426 47.078C107.882 47.0872 107.345 46.9636 106.866 46.719C106.418 46.4899 106.045 46.1499 105.785 45.7355C105.582 45.4193 105.448 45.0674 105.392 44.7011C105.337 44.3347 105.36 43.9615 105.461 43.6039C105.562 43.2464 105.739 42.9119 105.98 42.6207C106.222 42.3295 106.523 42.0876 106.866 41.9096C107.345 41.6656 107.883 41.5428 108.426 41.5531C108.97 41.5449 109.507 41.6675 109.986 41.9096C110.433 42.1387 110.805 42.4788 111.062 42.8931C111.318 43.3304 111.452 43.8219 111.452 44.3217C111.452 44.8214 111.318 45.313 111.062 45.7502C110.805 46.1667 110.431 46.5072 109.981 46.7337C109.502 46.9707 108.967 47.0891 108.426 47.078ZM108.426 46.0084C108.732 46.0132 109.033 45.9419 109.3 45.8019C109.559 45.6626 109.771 45.455 109.908 45.2044C110.058 44.9286 110.133 44.6219 110.127 44.3119C110.134 44.0017 110.059 43.6947 109.908 43.4193C109.77 43.1757 109.562 42.9737 109.308 42.8366C109.042 42.7014 108.746 42.6307 108.445 42.6307C108.143 42.6307 107.847 42.7014 107.581 42.8366C107.325 42.9733 107.114 43.1752 106.973 43.4193C106.818 43.6934 106.741 44.001 106.75 44.3119C106.742 44.6226 106.819 44.9299 106.973 45.2044C107.112 45.4536 107.323 45.66 107.581 45.7994C107.839 45.9381 108.13 46.0102 108.426 46.0084Z" fill="white" stroke="white" stroke-miterlimit="10"/>
<path d="M115.916 41.5531C116.337 41.5433 116.755 41.6276 117.135 41.799C117.491 41.9731 117.785 42.2436 117.977 42.576C118.203 42.9893 118.312 43.4511 118.292 43.916V47.0018H116.961V44.0832C116.992 43.697 116.865 43.3143 116.607 43.0136C116.476 42.8921 116.319 42.798 116.146 42.7375C115.974 42.6769 115.79 42.6512 115.606 42.662C115.318 42.6572 115.032 42.7197 114.775 42.844C114.533 42.9636 114.338 43.152 114.216 43.3825C114.074 43.6637 114.006 43.9733 114.018 44.2848V47.0067H112.695V41.6244H113.963V43.0849L113.74 42.6325C113.931 42.2891 114.231 42.0107 114.598 41.8359C115.006 41.641 115.459 41.5439 115.916 41.5531Z" fill="white" stroke="white" stroke-miterlimit="10"/>
<path d="M121.638 47.078C121.254 47.0859 120.873 47.0155 120.52 46.8715C120.221 46.7497 119.964 46.5502 119.779 46.2961C119.606 46.0503 119.515 45.7606 119.519 45.465C119.514 45.1782 119.594 44.8956 119.748 44.6487C119.926 44.3849 120.19 44.1829 120.499 44.0734C120.942 43.9173 121.413 43.8454 121.885 43.8619H123.536V44.6979H121.976C121.526 44.6979 121.225 44.7668 121.063 44.9044C120.986 44.9695 120.925 45.0496 120.884 45.1391C120.843 45.2287 120.822 45.3256 120.824 45.4232C120.822 45.5279 120.847 45.6314 120.897 45.7248C120.947 45.8182 121.02 45.8987 121.11 45.9592C121.348 46.1048 121.628 46.1754 121.911 46.1609C122.219 46.1651 122.522 46.0921 122.79 45.9494C123.049 45.807 123.251 45.5861 123.362 45.3224L123.575 46.0797C123.447 46.3948 123.205 46.6564 122.891 46.8174C122.504 47.0042 122.072 47.094 121.638 47.078ZM123.429 47.0067V45.9076L123.367 45.6863V43.7808C123.376 43.621 123.349 43.4611 123.287 43.3121C123.225 43.1631 123.13 43.0286 123.008 42.9178C122.701 42.6912 122.315 42.5815 121.927 42.6104C121.611 42.6118 121.298 42.6599 120.998 42.753C120.715 42.8378 120.451 42.9711 120.219 43.1464L119.699 42.2293C120.029 42.0025 120.401 41.8358 120.796 41.7376C121.218 41.6227 121.656 41.5648 122.096 41.5654C122.925 41.5654 123.564 41.7523 124.014 42.1309C124.464 42.5096 124.685 43.0849 124.685 43.8521V47.0067H123.429Z" fill="white" stroke="white" stroke-miterlimit="10"/>
<path d="M126.338 47.0067V39.5271H127.664V47.0067H126.338Z" fill="white" stroke="white" stroke-miterlimit="10"/>
<path d="M132.344 47.0067V39.95H133.729V47.0067H132.344Z" fill="white" stroke="white" stroke-miterlimit="10"/>
<path d="M138.788 41.5531C139.21 41.5434 139.629 41.6276 140.01 41.799C140.366 41.9725 140.659 42.2432 140.85 42.576C141.076 42.9893 141.184 43.4511 141.164 43.916V47.0017H139.833V44.0832C139.865 43.6974 139.74 43.3147 139.482 43.0136C139.35 42.8922 139.193 42.7982 139.02 42.7376C138.847 42.6771 138.663 42.6513 138.479 42.662C138.19 42.6572 137.904 42.7197 137.647 42.844C137.406 42.9644 137.211 43.1526 137.088 43.3824C136.948 43.6642 136.88 43.9735 136.89 44.2848V47.0067H135.57V41.6244H136.838V43.0849L136.615 42.6325C136.806 42.2885 137.106 42.0099 137.473 41.8359C137.88 41.641 138.332 41.5439 138.788 41.5531Z" fill="white" stroke="white" stroke-miterlimit="10"/>
<path d="M144.562 47.078C144.097 47.0805 143.634 47.0209 143.187 46.9009C142.819 46.8092 142.469 46.6649 142.147 46.4731L142.667 45.5142C142.952 45.6808 143.261 45.8083 143.585 45.8928C143.934 45.9895 144.297 46.0384 144.661 46.0379C144.971 46.0575 145.28 46.0043 145.563 45.883C145.646 45.8423 145.716 45.781 145.766 45.7057C145.815 45.6304 145.842 45.5438 145.844 45.4552C145.847 45.3875 145.831 45.3202 145.797 45.2605C145.763 45.2008 145.713 45.1508 145.651 45.1159C145.497 45.0297 145.328 44.9706 145.152 44.9413C144.944 44.8995 144.715 44.8626 144.463 44.8282C144.211 44.7938 143.959 44.7495 143.707 44.693C143.467 44.6423 143.236 44.5595 143.02 44.4471C142.817 44.3385 142.644 44.184 142.519 43.9971C142.38 43.7681 142.313 43.5061 142.326 43.2423C142.32 42.9233 142.429 42.612 142.636 42.3596C142.863 42.0918 143.163 41.8878 143.504 41.7695C143.929 41.6205 144.38 41.5488 144.832 41.558C145.222 41.5594 145.61 41.6015 145.989 41.6834C146.335 41.7507 146.667 41.8684 146.975 42.0326L146.455 42.989C146.204 42.8455 145.93 42.7417 145.644 42.6817C145.375 42.6256 145.1 42.5967 144.825 42.5956C144.516 42.5783 144.207 42.6358 143.928 42.7628C143.841 42.8012 143.767 42.8615 143.715 42.937C143.662 43.0125 143.632 43.1002 143.629 43.1907C143.625 43.2619 143.64 43.3329 143.674 43.3967C143.708 43.4605 143.758 43.5149 143.821 43.5546C143.97 43.6386 144.132 43.6977 144.302 43.7291C144.508 43.7709 144.736 43.8127 144.988 43.8496C145.241 43.8865 145.493 43.9332 145.74 43.9898C145.98 44.0437 146.211 44.1263 146.429 44.2356C146.635 44.3372 146.81 44.4881 146.936 44.6733C147.073 44.8967 147.139 45.1529 147.125 45.4109C147.134 45.7311 147.023 46.0438 146.811 46.2936C146.576 46.5567 146.271 46.7554 145.927 46.869C145.489 47.0163 145.027 47.0871 144.562 47.078Z" fill="white" stroke="white" stroke-miterlimit="10"/>
<path d="M147.466 42.6719V41.6638H151.259V42.6719H147.466ZM150.365 47.078C149.836 47.1108 149.315 46.9456 148.914 46.6182C148.733 46.4407 148.593 46.2294 148.504 45.9977C148.414 45.7661 148.377 45.5193 148.394 45.2732V40.4344H149.718V45.2314C149.703 45.4486 149.779 45.6626 149.931 45.8265C150.009 45.8993 150.102 45.9557 150.205 45.9922C150.307 46.0286 150.417 46.0442 150.526 46.0379C150.788 46.047 151.045 45.9687 151.251 45.8166L151.636 46.7141C151.461 46.8402 151.261 46.9329 151.049 46.987C150.826 47.0459 150.596 47.0765 150.365 47.078Z" fill="white" stroke="white" stroke-miterlimit="10"/>
<path d="M153.349 40.7368C153.237 40.7408 153.124 40.7233 153.019 40.6852C152.913 40.6472 152.817 40.5895 152.736 40.5155C152.658 40.445 152.597 40.3602 152.556 40.2662C152.515 40.1723 152.495 40.0713 152.497 39.9697C152.496 39.8714 152.516 39.774 152.558 39.6838C152.599 39.5936 152.66 39.5126 152.736 39.446C152.817 39.372 152.913 39.3143 153.019 39.2762C153.124 39.2382 153.237 39.2207 153.349 39.2247C153.574 39.2165 153.792 39.2905 153.96 39.4312C154.039 39.4973 154.101 39.5788 154.143 39.6702C154.185 39.7615 154.205 39.8604 154.202 39.9598C154.204 40.062 154.184 40.1636 154.144 40.2583C154.103 40.3529 154.042 40.4388 153.966 40.5106C153.885 40.5864 153.788 40.6455 153.682 40.6845C153.576 40.7234 153.463 40.7412 153.349 40.7368ZM152.687 47.0067V41.6244H154.01V47.0067H152.687Z" fill="white" stroke="white" stroke-miterlimit="10"/>
<path d="M154.938 42.6719V41.6638H158.731V42.6719H154.938ZM157.837 47.078C157.308 47.1108 156.787 46.9456 156.386 46.6182C156.205 46.4407 156.065 46.2294 155.976 45.9977C155.886 45.7661 155.849 45.5193 155.866 45.2732V40.4344H157.189V45.2314C157.175 45.4486 157.251 45.6626 157.403 45.8265C157.48 45.8993 157.574 45.9557 157.676 45.9922C157.779 46.0286 157.888 46.0442 157.998 46.0379C158.26 46.047 158.516 45.9687 158.723 45.8166L159.108 46.7141C158.933 46.8402 158.733 46.9329 158.52 46.987C158.298 47.0459 158.068 47.0765 157.837 47.078Z" fill="white" stroke="white" stroke-miterlimit="10"/>
<path d="M162.558 47.078C162.117 47.0903 161.679 47.0062 161.279 46.8321C160.909 46.6625 160.605 46.3872 160.41 46.0453C160.185 45.6334 160.077 45.1734 160.096 44.7102V41.6367H161.44V44.5504C161.409 44.9369 161.534 45.3202 161.791 45.6224C161.918 45.7447 162.071 45.84 162.24 45.9019C162.409 45.9638 162.59 45.9909 162.771 45.9813C163.057 45.9867 163.339 45.9242 163.592 45.7994C163.829 45.676 164.019 45.4861 164.136 45.256C164.272 44.9749 164.338 44.6677 164.328 44.3586V41.6244H165.659V47.0067H164.391V45.5462L164.614 45.9986C164.424 46.338 164.131 46.6155 163.772 46.7952C163.398 46.9838 162.981 47.081 162.558 47.078Z" fill="white" stroke="white" stroke-miterlimit="10"/>
<path d="M166.587 42.6719V41.6638H170.38V42.6719H166.587ZM169.486 47.078C168.957 47.1103 168.436 46.9452 168.035 46.6182C167.854 46.4407 167.714 46.2294 167.625 45.9977C167.535 45.7661 167.498 45.5193 167.515 45.2732V40.4344H168.836V45.2314C168.821 45.4486 168.897 45.6626 169.049 45.8265C169.127 45.8996 169.221 45.9563 169.324 45.9927C169.427 46.0291 169.537 46.0446 169.647 46.0379C169.908 46.0475 170.164 45.9691 170.37 45.8166L170.754 46.7141C170.579 46.8402 170.379 46.9329 170.167 46.987C169.945 47.0457 169.716 47.0763 169.486 47.078Z" fill="white" stroke="white" stroke-miterlimit="10"/>
<path d="M174.282 47.078C173.707 47.09 173.137 46.9666 172.624 46.719C172.168 46.4944 171.788 46.1537 171.527 45.7355C171.261 45.3028 171.126 44.8095 171.137 44.3094C171.127 43.8106 171.258 43.3183 171.516 42.8833C171.763 42.473 172.122 42.1332 172.556 41.8998C173.02 41.6568 173.544 41.5339 174.074 41.5433C174.592 41.5347 175.103 41.6542 175.556 41.89C175.987 42.1222 176.342 42.4626 176.581 42.8735C176.837 43.3268 176.965 43.8349 176.952 44.3487C176.952 44.3954 176.952 44.4544 176.952 44.5233C176.95 44.5858 176.945 44.6482 176.937 44.7102H172.192V43.8742H176.232L175.699 44.1373C175.712 43.8549 175.644 43.5744 175.502 43.3259C175.371 43.0936 175.174 42.9009 174.932 42.7702C174.671 42.6348 174.377 42.567 174.08 42.5735C173.781 42.5691 173.485 42.6368 173.222 42.7702C172.973 42.8975 172.771 43.0929 172.642 43.3308C172.502 43.5893 172.433 43.8766 172.439 44.1668V44.3684C172.433 44.6679 172.512 44.9635 172.668 45.2241C172.822 45.474 173.049 45.6758 173.323 45.8043C173.631 45.9473 173.971 46.0181 174.314 46.0109C174.609 46.0157 174.902 45.9647 175.177 45.8609C175.435 45.7593 175.668 45.6077 175.86 45.4158L176.586 46.2026C176.318 46.487 175.983 46.7077 175.608 46.8468C175.187 47.005 174.736 47.0835 174.282 47.078Z" fill="white" stroke="white" stroke-miterlimit="10"/>
<path d="M183.607 47.078C183.063 47.0874 182.526 46.9637 182.047 46.719C181.599 46.4899 181.226 46.15 180.966 45.7355C180.762 45.4196 180.628 45.068 180.572 44.7019C180.516 44.3357 180.539 43.9626 180.64 43.6051C180.74 43.2475 180.917 42.913 181.158 42.6216C181.399 42.3302 181.7 42.088 182.042 41.9096C182.521 41.6655 183.058 41.5427 183.602 41.5531C184.146 41.545 184.682 41.6676 185.162 41.9096C185.608 42.1401 185.979 42.4799 186.238 42.8932C186.494 43.3304 186.628 43.822 186.628 44.3217C186.628 44.8214 186.494 45.313 186.238 45.7502C185.981 46.1661 185.606 46.5065 185.157 46.7337C184.679 46.9695 184.146 47.0878 183.607 47.078ZM183.607 46.0084C183.913 46.0134 184.216 45.9421 184.483 45.8019C184.74 45.6622 184.948 45.4556 185.084 45.2069C185.234 44.9311 185.309 44.6244 185.302 44.3143C185.31 44.0042 185.235 43.6972 185.084 43.4218C184.945 43.1781 184.737 42.9762 184.483 42.8391C184.218 42.7035 183.921 42.6325 183.619 42.6325C183.317 42.6325 183.02 42.7035 182.755 42.8391C182.5 42.9765 182.29 43.1783 182.149 43.4218C181.994 43.6958 181.916 44.0035 181.925 44.3143C181.918 44.625 181.995 44.9324 182.149 45.2069C182.287 45.4557 182.497 45.6621 182.755 45.8019C183.015 45.9403 183.309 46.0116 183.607 46.0084Z" fill="white" stroke="white" stroke-miterlimit="10"/>
<path d="M187.104 42.6719V41.6638H190.9V42.6719H187.104ZM188.042 47.0067V41.3318C188.028 41.0827 188.067 40.8334 188.156 40.5986C188.246 40.3639 188.384 40.1483 188.562 39.9648C188.764 39.7871 189.001 39.6503 189.261 39.5628C189.52 39.4752 189.796 39.4388 190.07 39.4558C190.294 39.455 190.518 39.479 190.736 39.5271C190.923 39.5661 191.1 39.6414 191.256 39.7484L190.884 40.6852C190.789 40.6221 190.686 40.5708 190.577 40.5327C190.45 40.4914 190.316 40.4707 190.182 40.4713C190.067 40.4637 189.952 40.4791 189.843 40.5163C189.735 40.5536 189.636 40.612 189.553 40.6877C189.398 40.868 189.322 41.0976 189.34 41.3294V41.9539L189.371 42.5071V47.0042L188.042 47.0067Z" fill="white" stroke="white" stroke-miterlimit="10"/>
<path d="M196.25 47.0067V41.0589H193.777V39.95H200.108V41.0589H197.635V47.0067H196.25Z" fill="white" stroke="white" stroke-miterlimit="10"/>
<path d="M203.056 47.078C202.48 47.0903 201.91 46.9669 201.397 46.719C200.941 46.495 200.561 46.1542 200.3 45.7355C200.035 45.3028 199.9 44.8096 199.91 44.3094C199.9 43.8106 200.031 43.3183 200.29 42.8833C200.537 42.473 200.896 42.1332 201.33 41.8998C201.794 41.6565 202.317 41.5335 202.848 41.5433C203.365 41.5347 203.876 41.6542 204.33 41.89C204.76 42.1222 205.113 42.4627 205.351 42.8735C205.61 43.326 205.739 43.8345 205.726 44.3487C205.726 44.3955 205.726 44.4545 205.726 44.5233C205.726 44.5921 205.726 44.6561 205.71 44.7102H200.961V43.8742H205L204.468 44.1373C204.481 43.8549 204.412 43.5744 204.27 43.3259C204.139 43.0936 203.942 42.9009 203.701 42.7702C203.44 42.6349 203.145 42.567 202.848 42.5735C202.549 42.5691 202.254 42.6368 201.99 42.7702C201.741 42.8973 201.538 43.0927 201.408 43.3308C201.268 43.5893 201.198 43.8766 201.205 44.1668V44.3684C201.199 44.6681 201.279 44.9637 201.436 45.2241C201.588 45.4751 201.817 45.6773 202.091 45.8043C202.399 45.9473 202.739 46.0181 203.082 46.0109C203.377 46.0157 203.671 45.9647 203.945 45.8609C204.203 45.7599 204.435 45.6082 204.626 45.4158L205.351 46.2026C205.085 46.4875 204.751 46.7083 204.377 46.8468C203.956 47.0043 203.508 47.0829 203.056 47.078Z" fill="white" stroke="white" stroke-miterlimit="10"/>
<path d="M209.555 47.078C209 47.0874 208.452 46.9639 207.962 46.719C207.509 46.4922 207.131 46.1519 206.87 45.7355C206.664 45.419 206.529 45.0661 206.472 44.6984C206.416 44.3307 206.44 43.956 206.542 43.5973C206.644 43.2386 206.823 42.9034 207.067 42.6124C207.311 42.3213 207.615 42.0805 207.962 41.9047C208.452 41.6607 209.001 41.5381 209.555 41.5482C210.062 41.5399 210.563 41.6505 211.014 41.8703C211.431 42.0778 211.767 42.406 211.973 42.8071L210.962 43.3726C210.807 43.1392 210.592 42.9464 210.338 42.812C210.098 42.6912 209.83 42.6279 209.558 42.6276C209.248 42.6232 208.943 42.6943 208.671 42.8341C208.411 42.9691 208.198 43.1712 208.055 43.4169C207.899 43.6907 207.821 43.9983 207.829 44.3094C207.821 44.622 207.899 44.9312 208.055 45.2068C208.197 45.4552 208.41 45.66 208.671 45.7969C208.943 45.9367 209.248 46.0079 209.558 46.0035C209.83 46.0035 210.098 45.9393 210.338 45.8166C210.595 45.6823 210.81 45.4864 210.962 45.2486L211.973 45.8117C211.765 46.2104 211.429 46.5367 211.014 46.7436C210.565 46.9698 210.063 47.0848 209.555 47.078Z" fill="white" stroke="white" stroke-miterlimit="10"/>
<path d="M216.247 41.5531C216.668 41.5433 217.086 41.6276 217.466 41.799C217.822 41.9731 218.116 42.2436 218.309 42.576C218.533 42.9896 218.642 43.4512 218.623 43.916V47.0017H217.289V44.0832C217.321 43.6974 217.196 43.3147 216.938 43.0136C216.807 42.8921 216.65 42.798 216.477 42.7375C216.305 42.6769 216.121 42.6512 215.938 42.662C215.649 42.657 215.363 42.7195 215.106 42.844C214.864 42.9636 214.669 43.152 214.547 43.3825C214.405 43.6637 214.337 43.9733 214.349 44.2848V47.0067H213.026V39.5271H214.349V43.0849L214.071 42.6325C214.262 42.2891 214.562 42.0107 214.929 41.8359C215.337 41.6407 215.79 41.5436 216.247 41.5531Z" fill="white" stroke="white" stroke-miterlimit="10"/>
<path d="M223.482 41.5531C223.904 41.5431 224.323 41.6274 224.704 41.799C225.06 41.9731 225.353 42.2436 225.546 42.576C225.771 42.9896 225.88 43.4512 225.861 43.916V47.0018H224.527V44.0832C224.559 43.6974 224.433 43.3147 224.176 43.0136C224.044 42.8919 223.887 42.7977 223.714 42.7372C223.541 42.6766 223.357 42.651 223.173 42.662C222.885 42.6572 222.6 42.7197 222.343 42.844C222.102 42.9643 221.906 43.1524 221.782 43.3825C221.642 43.6644 221.576 43.9737 221.587 44.2848V47.0067H220.264V41.6244H221.532V43.0849L221.309 42.6325C221.5 42.2891 221.8 42.0107 222.167 41.8359C222.574 41.641 223.026 41.5439 223.482 41.5531Z" fill="white" stroke="white" stroke-miterlimit="10"/>
<path d="M230.059 47.078C229.515 47.0866 228.978 46.963 228.499 46.719C228.051 46.4899 227.677 46.1499 227.418 45.7355C227.214 45.4196 227.08 45.068 227.024 44.7018C226.968 44.3357 226.991 43.9626 227.092 43.6051C227.192 43.2475 227.368 42.913 227.609 42.6216C227.85 42.3302 228.151 42.088 228.494 41.9096C228.973 41.6658 229.51 41.543 230.054 41.5531C230.597 41.5453 231.134 41.6679 231.614 41.9096C232.059 42.1401 232.431 42.4799 232.69 42.8931C232.944 43.3309 233.077 43.8223 233.077 44.3217C233.077 44.8211 232.944 45.3125 232.69 45.7502C232.432 46.1656 232.057 46.5059 231.608 46.7337C231.13 46.9692 230.598 47.0875 230.059 47.078ZM230.059 46.0084C230.364 46.0137 230.666 45.9425 230.932 45.8019C231.19 45.663 231.4 45.4563 231.536 45.2069C231.686 44.9311 231.761 44.6244 231.754 44.3143C231.762 44.0042 231.687 43.6972 231.536 43.4218C231.396 43.1778 231.187 42.9759 230.932 42.8391C230.667 42.7039 230.371 42.6332 230.069 42.6332C229.768 42.6332 229.472 42.7039 229.206 42.8391C228.951 42.9772 228.741 43.1787 228.598 43.4218C228.444 43.6963 228.367 44.0036 228.374 44.3143C228.368 44.6249 228.445 44.9319 228.598 45.2069C228.738 45.455 228.949 45.6611 229.206 45.8019C229.466 45.9406 229.76 46.0119 230.059 46.0084Z" fill="white" stroke="white" stroke-miterlimit="10"/>
<path d="M234.323 47.0067V39.5271H235.643V47.0067H234.323Z" fill="white" stroke="white" stroke-miterlimit="10"/>
<path d="M239.886 47.078C239.342 47.0873 238.805 46.9637 238.326 46.719C237.878 46.4899 237.503 46.15 237.242 45.7355C237.038 45.4195 236.904 45.0678 236.848 44.7015C236.792 44.3351 236.815 43.9618 236.916 43.6042C237.017 43.2466 237.193 42.912 237.435 42.6207C237.676 42.3294 237.978 42.0875 238.321 41.9096C238.8 41.6651 239.337 41.5423 239.881 41.5531C240.429 41.5429 240.97 41.6656 241.454 41.9096C241.899 42.1401 242.271 42.4798 242.53 42.8931C242.786 43.3304 242.92 43.8219 242.92 44.3217C242.92 44.8214 242.786 45.313 242.53 45.7502C242.272 46.1661 241.898 46.5065 241.449 46.7337C240.967 46.9712 240.429 47.0896 239.886 47.078ZM239.886 46.0084C240.192 46.0137 240.493 45.9425 240.76 45.8019C241.017 45.663 241.227 45.4562 241.363 45.2068C241.513 44.9311 241.588 44.6243 241.581 44.3143C241.589 44.0041 241.514 43.6971 241.363 43.4218C241.224 43.1778 241.015 42.9758 240.76 42.839C240.494 42.7039 240.198 42.6331 239.897 42.6331C239.595 42.6331 239.299 42.7039 239.033 42.839C238.778 42.9772 238.568 43.1787 238.425 43.4218C238.271 43.6963 238.194 44.0036 238.202 44.3143C238.195 44.6249 238.272 44.9319 238.425 45.2068C238.565 45.455 238.776 45.6611 239.033 45.8019C239.294 45.9403 239.588 46.0115 239.886 46.0084Z" fill="white" stroke="white" stroke-miterlimit="10"/>
<path d="M246.549 46.7657C246.037 46.7737 245.531 46.6604 245.078 46.4362C244.648 46.2292 244.288 45.9134 244.038 45.524C243.78 45.1131 243.649 44.642 243.661 44.1643C243.649 43.6812 243.78 43.2044 244.038 42.7874C244.288 42.3981 244.648 42.0822 245.078 41.8752C245.533 41.6555 246.038 41.5449 246.549 41.5531C247 41.5467 247.445 41.6419 247.849 41.831C248.241 42.0194 248.563 42.3161 248.772 42.6817C249.016 43.1383 249.133 43.6459 249.112 44.1569C249.133 44.6633 249.016 45.1661 248.772 45.6174C248.561 45.984 248.24 46.2828 247.849 46.4756C247.446 46.6687 247.001 46.7682 246.549 46.7657ZM246.718 49.0327C246.198 49.0339 245.68 48.9677 245.179 48.836C244.73 48.7265 244.31 48.5288 243.947 48.2557L244.545 47.3189C244.824 47.5301 245.142 47.691 245.483 47.7935C245.861 47.9147 246.257 47.9762 246.656 47.9754C247.272 47.9754 247.727 47.8377 248.018 47.5672C248.174 47.4002 248.293 47.2054 248.368 46.9942C248.443 46.7831 248.472 46.56 248.455 46.3379V45.3814L248.561 44.1717L248.52 42.9423V41.622H249.788V46.1879C249.788 47.1616 249.528 47.8787 249.009 48.3393C248.473 48.8015 247.714 49.0327 246.731 49.0327H246.718ZM246.752 45.6961C247.063 45.7008 247.37 45.6332 247.646 45.4994C247.901 45.3763 248.113 45.188 248.26 44.956C248.403 44.7115 248.478 44.4365 248.478 44.1569C248.478 43.8774 248.403 43.6024 248.26 43.3578C248.113 43.128 247.9 42.9422 247.646 42.8218C247.368 42.6928 247.062 42.6279 246.752 42.6325C246.44 42.6282 246.131 42.6931 245.85 42.8218C245.594 42.9413 245.379 43.1272 245.231 43.3578C245.088 43.6024 245.013 43.8774 245.013 44.1569C245.013 44.4365 245.088 44.7115 245.231 44.956C245.379 45.1888 245.594 45.3772 245.85 45.4994C246.129 45.6329 246.439 45.7004 246.752 45.6961Z" fill="white" stroke="white" stroke-miterlimit="10"/>
<path d="M251.951 49.0327C251.665 49.0318 251.381 48.9878 251.109 48.9024C250.857 48.8277 250.625 48.7037 250.428 48.5385L250.948 47.6214C251.087 47.7303 251.243 47.819 251.41 47.8844C251.575 47.9503 251.752 47.9845 251.93 47.9852C252.141 47.994 252.347 47.9331 252.515 47.8131C252.7 47.6512 252.842 47.4509 252.931 47.2279L253.251 46.5419L253.381 46.3821L255.523 41.6244H256.802L254.138 47.4492C253.993 47.7913 253.793 48.1098 253.545 48.3934C253.348 48.6102 253.1 48.7789 252.819 48.8851C252.542 48.9843 252.248 49.0343 251.951 49.0327ZM253.113 47.1984L250.545 41.6244H251.93L254.031 46.2715L253.113 47.1984Z" fill="white" stroke="white" stroke-miterlimit="10"/>
<path d="M87.0099 57.6801C86.4673 57.6863 85.9284 57.5954 85.4215 57.4121C84.9536 57.2436 84.5264 56.9875 84.1655 56.6592C83.8046 56.331 83.5173 55.9373 83.3209 55.5017C82.9223 54.5713 82.9223 53.5307 83.3209 52.6003C83.5194 52.1643 83.8086 51.7705 84.1712 51.4423C84.5339 51.1141 84.9626 50.8582 85.4319 50.6899C86.4859 50.3226 87.6456 50.3331 88.6919 50.7194C89.1863 50.9099 89.6243 51.2111 89.9684 51.5972L89.0741 52.3938C88.8155 52.1302 88.5034 51.9187 88.1564 51.7717C87.8168 51.6327 87.4502 51.5623 87.0801 51.5652C86.7142 51.5615 86.3508 51.6233 86.009 51.7471C85.6946 51.8632 85.4081 52.0379 85.1667 52.261C84.9274 52.4859 84.7375 52.7533 84.6078 53.0478C84.3386 53.689 84.3386 54.4032 84.6078 55.0444C84.7384 55.3384 84.9282 55.6057 85.1667 55.8312C85.4081 56.0542 85.6946 56.229 86.009 56.345C86.3508 56.4689 86.7142 56.5307 87.0801 56.527C87.4502 56.5299 87.8168 56.4595 88.1564 56.3205C88.5054 56.1725 88.818 55.9572 89.0741 55.6886L89.9684 56.4901C89.6237 56.879 89.185 57.1834 88.6893 57.3777C88.1567 57.5843 87.5855 57.6871 87.0099 57.6801Z" fill="white" stroke="white" stroke-miterlimit="10"/>
<path d="M92.7759 57.6507C92.391 57.6585 92.0089 57.5881 91.6554 57.4441C91.3559 57.3223 91.0991 57.1229 90.9145 56.8688C90.7409 56.623 90.6503 56.3332 90.6545 56.0377C90.6496 55.7508 90.7288 55.4683 90.8833 55.2214C91.0616 54.958 91.3251 54.7562 91.6346 54.646C92.0773 54.4902 92.5482 54.4183 93.0202 54.4346H94.6737V55.2706H93.1138C92.6667 55.2706 92.3625 55.3394 92.2013 55.4771C92.1243 55.5422 92.0631 55.6223 92.0218 55.7118C91.9806 55.8013 91.9602 55.8982 91.9622 55.9959C91.9598 56.1008 91.985 56.2047 92.0353 56.2982C92.0857 56.3917 92.1597 56.472 92.2507 56.5319C92.4874 56.6776 92.7669 56.7483 93.0488 56.7335C93.3572 56.7377 93.6612 56.6648 93.9301 56.5221C94.1882 56.3786 94.3885 56.158 94.4995 55.8951L94.7127 56.6524C94.586 56.9673 94.3444 57.2289 94.0315 57.39C93.6435 57.5773 93.2111 57.667 92.7759 57.6507ZM94.5671 57.5794V56.4803L94.5021 56.259V54.3535C94.5115 54.1939 94.4846 54.0342 94.4231 53.8853C94.3617 53.7364 94.2672 53.6018 94.1459 53.4904C93.8373 53.2645 93.451 53.155 93.0618 53.1831C92.7473 53.1842 92.435 53.2324 92.1363 53.3257C91.8529 53.4102 91.5885 53.5436 91.3564 53.7191L90.8365 52.802C91.1677 52.5752 91.5406 52.4084 91.9362 52.3102C92.3587 52.195 92.7963 52.1371 93.236 52.1381C94.0679 52.1381 94.7075 52.3266 95.1546 52.7036C95.6018 53.0806 95.8253 53.6543 95.8253 54.4248V57.5794H94.5671Z" fill="white" stroke="white" stroke-miterlimit="10"/>
<path d="M97.4766 57.5794V50.0998H98.8076V57.5794H97.4766Z" fill="white" stroke="white" stroke-miterlimit="10"/>
<path d="M101.147 51.3095C101.035 51.3133 100.923 51.2957 100.818 51.2576C100.713 51.2196 100.617 51.162 100.536 51.0882C100.458 51.0179 100.397 50.9332 100.355 50.8392C100.313 50.7453 100.293 50.6442 100.295 50.5424C100.294 50.444 100.315 50.3465 100.357 50.2563C100.398 50.1661 100.46 50.0852 100.536 50.0186C100.617 49.9449 100.713 49.8872 100.818 49.8492C100.923 49.8112 101.035 49.7936 101.147 49.7974C101.372 49.7888 101.592 49.8628 101.761 50.0039C101.839 50.0701 101.901 50.1517 101.942 50.2431C101.984 50.3344 102.003 50.4332 102 50.5325C102.002 50.6345 101.982 50.7358 101.942 50.8304C101.902 50.925 101.842 51.011 101.766 51.0833C101.685 51.1592 101.588 51.2185 101.482 51.2575C101.375 51.2964 101.261 51.3141 101.147 51.3095ZM100.487 57.5794V52.1971H101.808V57.5794H100.487Z" fill="white" stroke="white" stroke-miterlimit="10"/>
<path d="M106.11 57.6506C105.555 57.66 105.007 57.5365 104.516 57.2917C104.064 57.0648 103.686 56.7246 103.424 56.3082C103.22 55.9913 103.086 55.6382 103.031 55.2707C102.975 54.9031 103 54.5287 103.103 54.1705C103.207 53.8123 103.386 53.4778 103.631 53.1875C103.875 52.8972 104.18 52.6573 104.527 52.4823C105.017 52.2383 105.566 52.1157 106.12 52.1258C106.627 52.1175 107.128 52.2281 107.579 52.4479C107.996 52.6554 108.332 52.9837 108.538 53.3847L107.527 53.9502C107.372 53.7168 107.157 53.524 106.903 53.3896C106.659 53.2668 106.386 53.2034 106.11 53.2052C105.8 53.2008 105.495 53.2719 105.223 53.4117C104.963 53.5467 104.75 53.7488 104.607 53.9945C104.451 54.2683 104.373 54.576 104.381 54.887C104.373 55.1996 104.451 55.5089 104.607 55.7845C104.749 56.0328 104.962 56.2376 105.223 56.3745C105.495 56.5143 105.8 56.5855 106.11 56.5811C106.386 56.5832 106.659 56.5189 106.903 56.3942C107.16 56.2599 107.375 56.064 107.527 55.8262L108.538 56.3893C108.33 56.788 107.994 57.1143 107.579 57.3212C107.127 57.5473 106.621 57.6607 106.11 57.6506Z" fill="white" stroke="white" stroke-miterlimit="10"/>
<path d="M112.035 57.6507C111.594 57.663 111.156 57.5789 110.756 57.4048C110.387 57.2345 110.083 56.9594 109.887 56.618C109.662 56.2061 109.554 55.7461 109.573 55.2829V52.2094H110.917V55.123C110.886 55.5096 111.011 55.8929 111.268 56.1951C111.395 56.3174 111.548 56.4127 111.717 56.4746C111.886 56.5365 112.067 56.5636 112.248 56.554C112.534 56.5601 112.816 56.4975 113.07 56.3721C113.306 56.2487 113.496 56.0588 113.613 55.8287C113.749 55.5476 113.815 55.2404 113.805 54.9313V52.1971H115.136V57.5794H113.87V56.1041L114.094 56.559C113.904 56.8984 113.61 57.1759 113.252 57.3556C112.878 57.5487 112.46 57.6502 112.035 57.6507Z" fill="white" stroke="white" stroke-miterlimit="10"/>
<path d="M116.064 53.2445V52.2364H119.865V53.2445H116.064ZM118.963 57.6507C118.435 57.6831 117.915 57.5179 117.515 57.1909C117.334 57.0134 117.194 56.802 117.105 56.5704C117.015 56.3388 116.978 56.092 116.995 55.8459V51.0071H118.316V55.8041C118.302 56.0212 118.379 56.2347 118.529 56.3991C118.607 56.4723 118.701 56.5289 118.804 56.5654C118.907 56.6018 119.017 56.6172 119.127 56.6106C119.389 56.6197 119.645 56.5413 119.852 56.3893L120.234 57.2868C120.06 57.4124 119.861 57.505 119.649 57.5597C119.426 57.6187 119.195 57.6493 118.963 57.6507Z" fill="white" stroke="white" stroke-miterlimit="10"/>
<path d="M121.032 59.1112L121.638 56.8638L121.841 57.6187C121.608 57.6266 121.381 57.5491 121.207 57.4023C121.12 57.3262 121.051 57.2331 121.007 57.1295C120.962 57.0259 120.941 56.9142 120.947 56.8024C120.943 56.6907 120.964 56.5796 121.009 56.4763C121.054 56.3729 121.121 56.2796 121.207 56.2024C121.371 56.0533 121.592 55.972 121.82 55.9762C121.935 55.9726 122.05 55.9913 122.157 56.031C122.265 56.0707 122.362 56.1308 122.444 56.2074C122.524 56.2865 122.586 56.3799 122.627 56.4821C122.668 56.5842 122.687 56.6931 122.683 56.8024C122.683 56.879 122.676 56.9554 122.662 57.031C122.644 57.1211 122.619 57.2098 122.587 57.2966C122.553 57.3974 122.501 57.5253 122.439 57.6802L121.885 59.1112H121.032Z" fill="white" stroke="white" stroke-miterlimit="10"/>
<path d="M126.926 57.5794V50.5227H128.311V57.5794H126.926ZM128.15 55.9172L128.088 54.3633L131.987 50.5227H133.547L130.298 53.7879L129.518 54.5846L128.15 55.9172ZM132.128 57.5794L129.268 54.3633L130.194 53.4068L133.766 57.5867L132.128 57.5794Z" fill="white" stroke="white" stroke-miterlimit="10"/>
<path d="M136.935 57.6507C136.359 57.663 135.789 57.5396 135.276 57.2917C134.82 57.0677 134.44 56.7269 134.179 56.3082C133.914 55.8755 133.779 55.3822 133.789 54.8821C133.779 54.3833 133.91 53.891 134.169 53.456C134.415 53.0457 134.775 52.7059 135.209 52.4725C135.673 52.2292 136.196 52.1062 136.727 52.116C137.244 52.1074 137.755 52.2269 138.209 52.4627C138.639 52.6949 138.992 53.0354 139.23 53.4462C139.489 53.8987 139.618 54.4072 139.605 54.9214C139.605 54.9681 139.605 55.0271 139.605 55.096C139.605 55.1648 139.605 55.2288 139.589 55.2829H134.845V54.4469H138.885L138.365 54.71C138.376 54.4277 138.308 54.1475 138.167 53.8986C138.037 53.6663 137.839 53.4736 137.598 53.3429C137.337 53.2078 137.043 53.1399 136.745 53.1462C136.446 53.1418 136.151 53.2095 135.887 53.3429C135.638 53.47 135.435 53.6654 135.305 53.9035C135.165 54.162 135.095 54.4493 135.102 54.7395V54.9411C135.096 55.2408 135.176 55.5364 135.333 55.7968C135.485 56.0478 135.714 56.25 135.989 56.377C136.296 56.52 136.636 56.5908 136.979 56.5836C137.274 56.5884 137.568 56.5374 137.842 56.4336C138.1 56.332 138.332 56.1804 138.523 55.9885L139.249 56.7753C138.982 57.0601 138.648 57.281 138.274 57.4195C137.848 57.5793 137.393 57.6578 136.935 57.6507Z" fill="white" stroke="white" stroke-miterlimit="10"/>
<path d="M140.834 57.5794V52.1971H142.103V53.6724L141.963 53.2445C142.119 52.8886 142.401 52.5949 142.761 52.4135C143.179 52.2109 143.645 52.1119 144.115 52.1258V53.3183L143.967 53.3036C143.92 53.3012 143.874 53.3012 143.827 53.3036C143.605 53.2925 143.384 53.3233 143.176 53.3943C142.967 53.4652 142.776 53.5748 142.613 53.7166C142.452 53.8869 142.329 54.0863 142.253 54.3027C142.176 54.5191 142.146 54.748 142.166 54.9755V57.5769L140.834 57.5794Z" fill="white" stroke="white" stroke-miterlimit="10"/>
<path d="M146.494 57.6506C146.11 57.6586 145.729 57.5881 145.376 57.4441C145.077 57.3223 144.82 57.1229 144.635 56.8688C144.462 56.6226 144.372 56.3331 144.375 56.0377C144.371 55.7506 144.451 55.468 144.607 55.2214C144.784 54.9575 145.048 54.7556 145.358 54.646C145.8 54.49 146.271 54.4181 146.743 54.4346H148.394V55.2706H146.834C146.385 55.2706 146.083 55.3394 145.922 55.4771C145.844 55.5418 145.783 55.6218 145.742 55.7114C145.7 55.801 145.68 55.8982 145.683 55.9959C145.681 56.1005 145.706 56.2041 145.755 56.2975C145.805 56.3909 145.878 56.4714 145.969 56.5319C146.206 56.6775 146.487 56.7481 146.769 56.7335C147.077 56.7378 147.38 56.6648 147.648 56.5221C147.908 56.3796 148.109 56.1588 148.22 55.8951L148.433 56.6524C148.306 56.9674 148.063 57.229 147.75 57.39C147.362 57.5773 146.929 57.667 146.494 57.6506ZM148.285 57.5793V56.4803L148.223 56.259V54.3535C148.232 54.1936 148.205 54.0337 148.143 53.8848C148.081 53.7358 147.986 53.6013 147.864 53.4904C147.557 53.2638 147.171 53.1542 146.782 53.1831C146.47 53.1828 146.16 53.2284 145.862 53.3183C145.579 53.4031 145.314 53.5364 145.082 53.7117L144.562 52.7946C144.893 52.5678 145.265 52.401 145.659 52.3028C146.086 52.1868 146.528 52.1289 146.972 52.1307C147.801 52.1307 148.44 52.3192 148.891 52.6962C149.341 53.0732 149.565 53.647 149.562 54.4174V57.572L148.285 57.5793Z" fill="white" stroke="white" stroke-miterlimit="10"/>
<path d="M151.194 57.5794V50.0998H152.518V57.5794H151.194Z" fill="white" stroke="white" stroke-miterlimit="10"/>
<path d="M155.918 57.6507C155.533 57.6585 155.151 57.5881 154.797 57.4441C154.498 57.3223 154.241 57.1229 154.057 56.8688C153.883 56.623 153.792 56.3332 153.797 56.0377C153.792 55.7508 153.871 55.4683 154.025 55.2214C154.204 54.958 154.467 54.7562 154.777 54.646C155.219 54.4902 155.69 54.4183 156.162 54.4346H157.821V55.2706H156.261C155.814 55.2706 155.51 55.3394 155.349 55.4771C155.272 55.5422 155.21 55.6223 155.169 55.7118C155.128 55.8013 155.107 55.8982 155.109 55.9959C155.107 56.1008 155.132 56.2047 155.183 56.2982C155.233 56.3917 155.307 56.472 155.398 56.5319C155.635 56.6776 155.914 56.7483 156.196 56.7335C156.504 56.7381 156.807 56.6651 157.075 56.5221C157.334 56.3796 157.536 56.1588 157.647 55.8951L157.86 56.6524C157.733 56.968 157.49 57.2299 157.176 57.39C156.788 57.5781 156.354 57.6679 155.918 57.6507ZM157.707 57.5794V56.4803L157.644 56.259V54.3535C157.655 54.1948 157.63 54.0357 157.571 53.8869C157.512 53.738 157.42 53.6029 157.301 53.4904C156.992 53.2645 156.606 53.155 156.217 53.1831C155.902 53.1842 155.59 53.2324 155.291 53.3257C155.008 53.4102 154.744 53.5436 154.512 53.7191L153.992 52.802C154.323 52.5752 154.696 52.4084 155.091 52.3102C155.514 52.195 155.951 52.1371 156.391 52.1381C157.223 52.1381 157.863 52.3266 158.31 52.7036C158.757 53.0806 158.98 53.6543 158.98 54.4248V57.5794H157.707Z" fill="white" stroke="white" stroke-miterlimit="10"/>
</g>
<defs>
<clipPath id="clip0_204_1382">
<rect width="257" height="72" fill="white"/>
</clipPath>
</defs>
</svg>
